<svg width="11.906mm" height="11.906mm" version="1.1" viewBox="0 0 11.906 11.906" xmlns="http://www.w3.org/2000/svg">
 <g transform="translate(-28.865 -135.7)">
  <g transform="matrix(.69013 0 0 .76047 8.9444 35.355)">
   <path transform="scale(.26458)" d="m131.52 543.68 37.629 0.0191c2.8554 1e-3 5.1543-2.3002 5.1543-5.1562v-34.689c0-2.856-2.2989-5.1543-5.1543-5.1543l-54.896-4e-4c-2.8554 1e-5 -5.1543 2.2983-5.1543 5.1543v34.689c0 2.856 2.2989 5.1562 5.1543 5.1562l10.17-0.0227 0.80357-3.0357-8.1763-1.5e-4c-2.5689-5e-5 -4.6367-1.9944-4.6367-4.4707v-30.076c0-2.4764 2.0678-4.4707 4.6367-4.4707h49.387c2.5689 0 4.6387 1.9943 4.6387 4.4707v30.076c0 2.4763-2.0698 4.4707-4.6387 4.4707-10.084 4e-5 -20.167 7e-5 -30.251 1.1e-4z" stroke-width=".11364"/>
   <path d="m32.081 143.05h1.0512l-0.55515 2.2206 3.4549-2.2206 1.6596 1e-5 -6.7209 4.5593z" stroke-width=".26458"/>
  </g>
 </g>
</svg>
