<svg width="36" height="35" viewBox="0 0 36 35" fill="none" xmlns="http://www.w3.org/2000/svg">
<g filter="url(#filter0_i)">
<path d="M32.6567 0H3.98879C2.24025 0 0.822754 1.4175 0.822754 3.16603V31.8339C0.822754 33.5825 2.24025 35 3.98879 35H32.6566C34.4053 35 35.8228 33.5825 35.8228 31.8339V3.16603C35.8228 1.4175 34.4053 0 32.6567 0ZM11.6532 30.2213C11.6532 30.7302 11.2408 31.1427 10.7319 31.1427H6.80986C6.30099 31.1427 5.8885 30.7302 5.8885 30.2213V13.7804C5.8885 13.2715 6.30099 12.859 6.80986 12.859H10.7319C11.2408 12.859 11.6532 13.2715 11.6532 13.7804V30.2213ZM8.77087 11.3092C6.71311 11.3092 5.04493 9.64103 5.04493 7.58327C5.04493 5.52551 6.71311 3.85733 8.77087 3.85733C10.8286 3.85733 12.4968 5.52551 12.4968 7.58327C12.4968 9.64103 10.8287 11.3092 8.77087 11.3092ZM32.1496 30.2955C32.1496 30.7634 31.7703 31.1427 31.3024 31.1427H27.0938C26.626 31.1427 26.2467 30.7634 26.2467 30.2955V22.5838C26.2467 21.4334 26.5841 17.5426 23.2403 17.5426C20.6465 17.5426 20.1204 20.2057 20.0148 21.4009V30.2955C20.0148 30.7634 19.6355 31.1427 19.1676 31.1427H15.0972C14.6293 31.1427 14.25 30.7634 14.25 30.2955V13.7062C14.25 13.2383 14.6293 12.859 15.0972 12.859H19.1676C19.6354 12.859 20.0148 13.2383 20.0148 13.7062V15.1405C20.9765 13.6972 22.4058 12.5831 25.4491 12.5831C32.1882 12.5831 32.1496 18.8791 32.1496 22.3384V30.2955Z" fill="#4B3F3F" fill-opacity="0.75"/>
</g>
<defs>
<filter id="filter0_i" x="0.822754" y="0" width="35" height="39" filterUnits="userSpaceOnUse" color-interpolation-filters="sRGB">
<feFlood flood-opacity="0" result="BackgroundImageFix"/>
<feBlend mode="normal" in="SourceGraphic" in2="BackgroundImageFix" result="shape"/>
<feColorMatrix in="SourceAlpha" type="matrix" values="0 0 0 0 0 0 0 0 0 0 0 0 0 0 0 0 0 0 127 0" result="hardAlpha"/>
<feOffset dy="4"/>
<feGaussianBlur stdDeviation="2"/>
<feComposite in2="hardAlpha" operator="arithmetic" k2="-1" k3="1"/>
<feColorMatrix type="matrix" values="0 0 0 0 0 0 0 0 0 0 0 0 0 0 0 0 0 0 0.25 0"/>
<feBlend mode="normal" in2="shape" result="effect1_innerShadow"/>
</filter>
</defs>
</svg>
