<?xml version="1.0" encoding="utf-8"?>
<!-- Generator: Adobe Illustrator 24.0.1, SVG Export Plug-In . SVG Version: 6.00 Build 0)  -->
<svg version="1.0" id="Layer_1" xmlns="http://www.w3.org/2000/svg" xmlns:xlink="http://www.w3.org/1999/xlink" x="0px" y="0px"
	 viewBox="0 0 512 512" enable-background="new 0 0 512 512" xml:space="preserve">
<path fill="#00c271" d="M243.6,506.5c-7.1-7.9-173-194.1-173-321C70.6,83.2,153.8,0,256,0s185.4,83.2,185.4,185.4
	c0,126.9-165.9,313.2-173,321C261.8,513.9,250.2,513.8,243.6,506.5z"/>
<path fill="#009f6a" d="M441.4,185.4C441.4,83.2,358.2,0,256,0v512c4.6,0,9.1-1.8,12.4-5.5C275.5,498.6,441.4,312.3,441.4,185.4z"/>
<path fill="#EFEFEF" d="M256,278.7c-51.4,0-93.3-41.9-93.3-93.3s41.9-93.3,93.3-93.3s93.3,41.9,93.3,93.3S307.4,278.7,256,278.7z"/>
<path opacity="0.65" fill="#C9FFE6" enable-background="new    " d="M256,92.1v186.6c51.4,0,93.3-41.9,93.3-93.3
	S307.4,92.1,256,92.1z"/>
</svg>
