<svg width="36" height="36" viewBox="0 0 36 36" fill="none" xmlns="http://www.w3.org/2000/svg">
<g filter="url(#filter0_i)">
<path d="M34.4853 4.33086C33.7077 4.74542 32.9004 5.07247 32.0721 5.30924C32.9848 4.26654 33.6711 2.96235 34.0582 1.50664C34.1688 1.09105 33.7933 0.731691 33.4811 0.954203C32.3288 1.77593 31.0875 2.39237 29.7917 2.78662C29.7166 2.80949 29.639 2.82109 29.5612 2.82109C29.3251 2.82109 29.0957 2.71573 28.9152 2.52451C27.5365 1.06377 25.7634 0.259277 23.9225 0.259277C23.1259 0.259277 22.3216 0.408542 21.532 0.702967C19.0853 1.61528 17.1974 4.04157 16.6051 7.03506C16.3829 8.15788 16.3228 9.28172 16.4262 10.3753C16.438 10.501 16.3886 10.5887 16.3582 10.6298C16.3047 10.7019 16.2288 10.7433 16.15 10.7433C16.1413 10.7433 16.1322 10.7428 16.1233 10.7417C10.7675 10.1436 5.938 7.04163 2.52423 2.00747C2.35015 1.75069 2.01633 1.78218 1.87757 2.0683C1.20907 3.44707 0.855789 5.02404 0.855789 6.62872C0.855789 9.08794 1.67764 11.4055 3.10518 13.095C2.50486 12.9239 1.92382 12.6544 1.38409 12.294C1.12297 12.1196 0.801687 12.3437 0.798018 12.7028C0.760642 16.3561 2.53985 19.6069 5.20516 21.0707C5.15148 21.0723 5.09781 21.073 5.04405 21.073C4.62156 21.073 4.19378 21.024 3.77275 20.9272C3.47869 20.8597 3.23165 21.1951 3.32295 21.5378C4.18807 24.7848 6.51358 27.1782 9.29648 27.7216C6.98684 29.5855 4.29721 30.5687 1.49784 30.5687L0.625132 30.5681C0.356246 30.5681 0.128832 30.7788 0.060309 31.0919C-0.00718984 31.4003 0.117141 31.7256 0.346433 31.8859C3.50087 34.0929 7.09897 35.2593 10.7533 35.2593C13.952 35.2593 16.9442 34.4961 19.6467 32.9912C22.1242 31.6115 24.3135 29.6392 26.1538 27.1292C27.8681 24.7911 29.2087 22.0919 30.1382 19.1068C31.0242 16.2614 31.4925 13.2252 31.4925 10.3265V10.1884C31.4924 9.72295 31.6675 9.28501 31.973 8.98689C33.1323 7.85535 34.1418 6.52336 34.9734 5.02794C35.1929 4.63308 34.8466 4.1382 34.4853 4.33086Z" fill="#4B3F3F" fill-opacity="0.75"/>
</g>
<defs>
<filter id="filter0_i" x="0.0419922" y="0.259277" width="35" height="39" filterUnits="userSpaceOnUse" color-interpolation-filters="sRGB">
<feFlood flood-opacity="0" result="BackgroundImageFix"/>
<feBlend mode="normal" in="SourceGraphic" in2="BackgroundImageFix" result="shape"/>
<feColorMatrix in="SourceAlpha" type="matrix" values="0 0 0 0 0 0 0 0 0 0 0 0 0 0 0 0 0 0 127 0" result="hardAlpha"/>
<feOffset dy="4"/>
<feGaussianBlur stdDeviation="2"/>
<feComposite in2="hardAlpha" operator="arithmetic" k2="-1" k3="1"/>
<feColorMatrix type="matrix" values="0 0 0 0 0 0 0 0 0 0 0 0 0 0 0 0 0 0 0.25 0"/>
<feBlend mode="normal" in2="shape" result="effect1_innerShadow"/>
</filter>
</defs>
</svg>
