<svg width="36" height="36" viewBox="0 0 36 36" fill="none" xmlns="http://www.w3.org/2000/svg">
<g filter="url(#filter0_i)">
<path d="M31.1365 0.259277H5.56926C2.96454 0.259277 0.852905 2.37081 0.852905 4.9756V30.5428C0.852905 33.1476 2.96446 35.2591 5.56926 35.2591H18.1789L18.2004 22.7521H14.951C14.5288 22.7521 14.186 22.4106 14.1844 21.9883L14.1688 17.9568C14.1672 17.5322 14.5109 17.1872 14.9355 17.1872H18.179V13.2917C18.179 8.771 20.9399 6.30945 24.9727 6.30945H28.2819C28.7053 6.30945 29.0486 6.6527 29.0486 7.07617V10.4756C29.0486 10.8989 28.7056 11.242 28.2823 11.2423L26.2515 11.2432C24.0584 11.2432 23.6337 12.2854 23.6337 13.8148V17.1873H28.4528C28.912 17.1873 29.2682 17.5882 29.2141 18.0442L28.7363 22.0758C28.6906 22.4616 28.3634 22.7522 27.975 22.7522H23.6552L23.6337 35.2593H31.1366C33.7414 35.2593 35.8529 33.1477 35.8529 30.543V4.9756C35.8528 2.37081 33.7413 0.259277 31.1365 0.259277Z" fill="#4B3F3F" fill-opacity="0.75"/>
</g>
<defs>
<filter id="filter0_i" x="0.852905" y="0.259277" width="35" height="39" filterUnits="userSpaceOnUse" color-interpolation-filters="sRGB">
<feFlood flood-opacity="0" result="BackgroundImageFix"/>
<feBlend mode="normal" in="SourceGraphic" in2="BackgroundImageFix" result="shape"/>
<feColorMatrix in="SourceAlpha" type="matrix" values="0 0 0 0 0 0 0 0 0 0 0 0 0 0 0 0 0 0 127 0" result="hardAlpha"/>
<feOffset dy="4"/>
<feGaussianBlur stdDeviation="2"/>
<feComposite in2="hardAlpha" operator="arithmetic" k2="-1" k3="1"/>
<feColorMatrix type="matrix" values="0 0 0 0 0 0 0 0 0 0 0 0 0 0 0 0 0 0 0.25 0"/>
<feBlend mode="normal" in2="shape" result="effect1_innerShadow"/>
</filter>
</defs>
</svg>
