<svg width="11.906mm" height="11.906mm" version="1.1" viewBox="0 0 11.906 11.906" xmlns="http://www.w3.org/2000/svg">
 <g transform="translate(-37.422 -200.81)">
  <g transform="matrix(.085834 0 0 .092533 34.21 193.03)">
   <path transform="matrix(.26458 0 0 .26458 37.422 84.042)" d="m132.21 0c-135.08 0.17344-155.71 126.31-110.79 219.88 64.804 135 240.71 266.43 240.71 266.43s175.91-131.43 240.71-266.43c44.917-93.571 24.286-219.71-110.79-219.88-92.064-0.11822-129.92 104.88-129.92 104.88s-37.858-105-129.92-104.88z" fill="#ca3c44"/>
  </g>
 </g>
 <g transform="translate(-37.422 -200.81)" fill="#ff8080" stroke-width=".02358">
  <path d="m47.136 201.75c-1.22-0.44728-1.8216-0.092-1.8086-0.21373 0.01458-0.13575 1.0062-0.53607 1.9623-0.2163 0.45838 0.15331 1.3186 0.78936 1.5311 1.3696-0.06554 0.253-0.63293-0.49593-1.6848-0.93953z"/>
  <path d="m40.799 201.78c-1.22-0.44728-1.9478-0.0549-1.9347-0.17663 0.01458-0.13575 1.1324-0.57317 2.0884-0.2534 0.45838 0.15331 1.2269 0.76462 1.4393 1.3448-0.06554 0.253-0.54116-0.4712-1.593-0.9148z"/>
 </g>
</svg>
