<svg id="jklGuidelogo" width="463" height="78" viewBox="0 0 463 78" fill="none" xmlns="http://www.w3.org/2000/svg">
<mask id="path-1-inside-1" fill="white">
    <path d="M35.5156 48.0215C35.5156 51.8952 34.7832 55.541 33.3184 58.959C31.8535 62.3444 29.8516 65.3066 27.3125 67.8457C24.806 70.3522 21.8438 72.3379 18.4258 73.8027C15.0404 75.2676 11.4108 76 7.53711 76C5.19336 76 2.84961 75.707 0.505859 75.1211V60.082C1.54753 60.7005 2.67057 61.1725 3.875 61.498C5.07943 61.8236 6.30013 61.9863 7.53711 61.9863C9.45768 61.9863 11.2643 61.6283 12.957 60.9121C14.6823 60.1634 16.1797 59.1543 17.4492 57.8848C18.7188 56.6152 19.7116 55.1341 20.4277 53.4414C21.1764 51.7487 21.5508 49.9421 21.5508 48.0215V5.98047H35.5156V48.0215Z"/>
    <path d="M61.7363 76H47.7227V5.98047H61.7363V40.9902L87.8105 5.98047H103.729L81.6094 35.5215L103.729 76H87.8105L72.4297 47.6797L61.7363 61.9863V76Z"/>
    <path d="M159.246 76H110.223V5.98047H124.236V61.9863H159.246V76Z"/>
    <path d="M199.285 34.0078V47.2891H158.27V34.0078H199.285Z"/>
    <path d="M267.498 68.9199C264.243 71.6868 260.613 73.819 256.609 75.3164C252.605 76.7812 248.439 77.5137 244.109 77.5137C240.789 77.5137 237.583 77.0742 234.49 76.1953C231.43 75.349 228.566 74.1445 225.896 72.582C223.227 70.987 220.786 69.099 218.572 66.918C216.359 64.7044 214.471 62.263 212.908 59.5938C211.346 56.8919 210.125 53.9948 209.246 50.9023C208.4 47.8099 207.977 44.6035 207.977 41.2832C207.977 37.9629 208.4 34.7728 209.246 31.7129C210.125 28.653 211.346 25.7884 212.908 23.1191C214.471 20.4173 216.359 17.9759 218.572 15.7949C220.786 13.5814 223.227 11.6934 225.896 10.1309C228.566 8.56836 231.43 7.36393 234.49 6.51758C237.583 5.63867 240.789 5.19922 244.109 5.19922C248.439 5.19922 252.605 5.94792 256.609 7.44531C260.613 8.91016 264.243 11.026 267.498 13.793L260.174 26C258.058 23.8516 255.617 22.1751 252.85 20.9707C250.083 19.7337 247.169 19.1152 244.109 19.1152C241.049 19.1152 238.169 19.7012 235.467 20.873C232.798 22.0449 230.454 23.64 228.436 25.6582C226.417 27.6439 224.822 29.9876 223.65 32.6895C222.479 35.3587 221.893 38.2233 221.893 41.2832C221.893 44.3757 222.479 47.2728 223.65 49.9746C224.822 52.6764 226.417 55.0365 228.436 57.0547C230.454 59.0729 232.798 60.668 235.467 61.8398C238.169 63.0117 241.049 63.5977 244.109 63.5977C245.867 63.5977 247.576 63.3861 249.236 62.9629C250.896 62.5397 252.475 61.9538 253.973 61.2051V41.2832H267.498V68.9199Z"/>
    <path d="M314.812 69.8965C313.738 70.873 312.583 71.8008 311.346 72.6797C310.141 73.526 308.872 74.2747 307.537 74.9258C306.202 75.5443 304.819 76.0326 303.387 76.3906C301.987 76.7812 300.555 76.9766 299.09 76.9766C295.867 76.9766 292.84 76.4069 290.008 75.2676C287.176 74.1283 284.686 72.5169 282.537 70.4336C280.421 68.3177 278.745 65.7624 277.508 62.7676C276.303 59.7402 275.701 56.3548 275.701 52.6113V23.7051H288.982V52.6113C288.982 54.3691 289.243 55.9479 289.764 57.3477C290.317 58.7148 291.049 59.8704 291.961 60.8145C292.872 61.7585 293.93 62.4746 295.135 62.9629C296.372 63.4512 297.69 63.6953 299.09 63.6953C300.457 63.6953 301.743 63.3861 302.947 62.7676C304.184 62.1165 305.258 61.2702 306.17 60.2285C307.081 59.1868 307.798 58.015 308.318 56.7129C308.839 55.3783 309.1 54.0111 309.1 52.6113V23.7051H322.43V76H319.207L314.812 69.8965Z"/>
    <path d="M348.357 9.49609C348.357 10.7331 348.113 11.8887 347.625 12.9629C347.169 14.0371 346.535 14.9811 345.721 15.7949C344.907 16.5762 343.947 17.2109 342.84 17.6992C341.766 18.1549 340.61 18.3828 339.373 18.3828C338.136 18.3828 336.964 18.1549 335.857 17.6992C334.783 17.2109 333.839 16.5762 333.025 15.7949C332.244 14.9811 331.609 14.0371 331.121 12.9629C330.665 11.8887 330.438 10.7331 330.438 9.49609C330.438 8.29167 330.665 7.15234 331.121 6.07812C331.609 4.97135 332.244 4.02734 333.025 3.24609C333.839 2.43229 334.783 1.79753 335.857 1.3418C336.964 0.853516 338.136 0.609375 339.373 0.609375C340.61 0.609375 341.766 0.853516 342.84 1.3418C343.947 1.79753 344.907 2.43229 345.721 3.24609C346.535 4.02734 347.169 4.97135 347.625 6.07812C348.113 7.15234 348.357 8.29167 348.357 9.49609ZM346.062 76H332.635V23.7051H346.062V76Z"/>
    <path d="M406.805 76H403.582L398.406 68.8223C397.137 69.9616 395.786 71.0358 394.354 72.0449C392.954 73.0215 391.473 73.8841 389.91 74.6328C388.348 75.349 386.736 75.9186 385.076 76.3418C383.449 76.765 381.788 76.9766 380.096 76.9766C376.417 76.9766 372.951 76.293 369.695 74.9258C366.473 73.526 363.641 71.6055 361.199 69.1641C358.79 66.6901 356.886 63.7767 355.486 60.4238C354.087 57.0384 353.387 53.36 353.387 49.3887C353.387 45.4499 354.087 41.7878 355.486 38.4023C356.886 35.0169 358.79 32.0872 361.199 29.6133C363.641 27.1393 366.473 25.2025 369.695 23.8027C372.951 22.403 376.417 21.7031 380.096 21.7031C381.268 21.7031 382.472 21.8008 383.709 21.9961C384.979 22.1914 386.199 22.5169 387.371 22.9727C388.576 23.3958 389.699 23.9655 390.74 24.6816C391.782 25.3978 392.661 26.2767 393.377 27.3184V2.9043H406.805V76ZM393.377 49.3887C393.377 47.5658 393.019 45.8079 392.303 44.1152C391.619 42.39 390.675 40.8763 389.471 39.5742C388.266 38.2396 386.85 37.1816 385.223 36.4004C383.628 35.5866 381.919 35.1797 380.096 35.1797C378.273 35.1797 376.548 35.5052 374.92 36.1562C373.325 36.8073 371.925 37.7513 370.721 38.9883C369.549 40.1927 368.621 41.6738 367.938 43.4316C367.254 45.1895 366.912 47.1751 366.912 49.3887C366.912 51.3092 367.254 53.1322 367.938 54.8574C368.621 56.5827 369.549 58.0964 370.721 59.3984C371.925 60.7005 373.325 61.7259 374.92 62.4746C376.548 63.2233 378.273 63.5977 380.096 63.5977C381.919 63.5977 383.628 63.207 385.223 62.4258C386.85 61.612 388.266 60.554 389.471 59.252C390.675 57.9173 391.619 56.4036 392.303 54.7109C393.019 52.9857 393.377 51.2116 393.377 49.3887Z"/>
    <path d="M437.811 63.207C438.331 63.3698 438.852 63.4837 439.373 63.5488C439.894 63.5814 440.415 63.5977 440.936 63.5977C442.238 63.5977 443.491 63.4186 444.695 63.0605C445.9 62.7025 447.023 62.1979 448.064 61.5469C449.139 60.8633 450.083 60.0495 450.896 59.1055C451.743 58.1289 452.426 57.0547 452.947 55.8828L462.713 65.6973C461.476 67.4551 460.044 69.0339 458.416 70.4336C456.821 71.8333 455.079 73.0215 453.191 73.998C451.336 74.9746 449.367 75.707 447.283 76.1953C445.232 76.7161 443.117 76.9766 440.936 76.9766C437.257 76.9766 433.79 76.293 430.535 74.9258C427.312 73.5586 424.48 71.6543 422.039 69.2129C419.63 66.7715 417.726 63.8743 416.326 60.5215C414.926 57.1361 414.227 53.4251 414.227 49.3887C414.227 45.2546 414.926 41.4785 416.326 38.0605C417.726 34.6426 419.63 31.7292 422.039 29.3203C424.48 26.9115 427.312 25.0397 430.535 23.7051C433.79 22.3704 437.257 21.7031 440.936 21.7031C443.117 21.7031 445.249 21.9635 447.332 22.4844C449.415 23.0052 451.385 23.7539 453.24 24.7305C455.128 25.707 456.886 26.9115 458.514 28.3438C460.141 29.7435 461.574 31.3223 462.811 33.0801L437.811 63.207ZM444.646 35.7168C444.028 35.4889 443.41 35.3424 442.791 35.2773C442.205 35.2122 441.587 35.1797 440.936 35.1797C439.113 35.1797 437.387 35.5215 435.76 36.2051C434.165 36.8561 432.765 37.8001 431.561 39.0371C430.389 40.2741 429.461 41.7715 428.777 43.5293C428.094 45.2546 427.752 47.2077 427.752 49.3887C427.752 49.877 427.768 50.4303 427.801 51.0488C427.866 51.6673 427.947 52.3021 428.045 52.9531C428.175 53.5716 428.322 54.1738 428.484 54.7598C428.647 55.3457 428.859 55.8665 429.119 56.3223L444.646 35.7168Z"/>
</mask>
    <path d="M35.5156 48.0215C35.5156 51.8952 34.7832 55.541 33.3184 58.959C31.8535 62.3444 29.8516 65.3066 27.3125 67.8457C24.806 70.3522 21.8438 72.3379 18.4258 73.8027C15.0404 75.2676 11.4108 76 7.53711 76C5.19336 76 2.84961 75.707 0.505859 75.1211V60.082C1.54753 60.7005 2.67057 61.1725 3.875 61.498C5.07943 61.8236 6.30013 61.9863 7.53711 61.9863C9.45768 61.9863 11.2643 61.6283 12.957 60.9121C14.6823 60.1634 16.1797 59.1543 17.4492 57.8848C18.7188 56.6152 19.7116 55.1341 20.4277 53.4414C21.1764 51.7487 21.5508 49.9421 21.5508 48.0215V5.98047H35.5156V48.0215Z" stroke="#FEFEFA" stroke-width="8" mask="url(#path-1-inside-1)"/>
    <path d="M61.7363 76H47.7227V5.98047H61.7363V40.9902L87.8105 5.98047H103.729L81.6094 35.5215L103.729 76H87.8105L72.4297 47.6797L61.7363 61.9863V76Z" stroke="#FEFEFA" stroke-width="8" mask="url(#path-1-inside-1)"/>
    <path d="M159.246 76H110.223V5.98047H124.236V61.9863H159.246V76Z" stroke="#FEFEFA" stroke-width="8" mask="url(#path-1-inside-1)"/>
    <path d="M199.285 34.0078V47.2891H158.27V34.0078H199.285Z" stroke="#FEFEFA" stroke-width="8" mask="url(#path-1-inside-1)"/>
    <path d="M267.498 68.9199C264.243 71.6868 260.613 73.819 256.609 75.3164C252.605 76.7812 248.439 77.5137 244.109 77.5137C240.789 77.5137 237.583 77.0742 234.49 76.1953C231.43 75.349 228.566 74.1445 225.896 72.582C223.227 70.987 220.786 69.099 218.572 66.918C216.359 64.7044 214.471 62.263 212.908 59.5938C211.346 56.8919 210.125 53.9948 209.246 50.9023C208.4 47.8099 207.977 44.6035 207.977 41.2832C207.977 37.9629 208.4 34.7728 209.246 31.7129C210.125 28.653 211.346 25.7884 212.908 23.1191C214.471 20.4173 216.359 17.9759 218.572 15.7949C220.786 13.5814 223.227 11.6934 225.896 10.1309C228.566 8.56836 231.43 7.36393 234.49 6.51758C237.583 5.63867 240.789 5.19922 244.109 5.19922C248.439 5.19922 252.605 5.94792 256.609 7.44531C260.613 8.91016 264.243 11.026 267.498 13.793L260.174 26C258.058 23.8516 255.617 22.1751 252.85 20.9707C250.083 19.7337 247.169 19.1152 244.109 19.1152C241.049 19.1152 238.169 19.7012 235.467 20.873C232.798 22.0449 230.454 23.64 228.436 25.6582C226.417 27.6439 224.822 29.9876 223.65 32.6895C222.479 35.3587 221.893 38.2233 221.893 41.2832C221.893 44.3757 222.479 47.2728 223.65 49.9746C224.822 52.6764 226.417 55.0365 228.436 57.0547C230.454 59.0729 232.798 60.668 235.467 61.8398C238.169 63.0117 241.049 63.5977 244.109 63.5977C245.867 63.5977 247.576 63.3861 249.236 62.9629C250.896 62.5397 252.475 61.9538 253.973 61.2051V41.2832H267.498V68.9199Z" stroke="#FEFEFA" stroke-width="8" mask="url(#path-1-inside-1)"/>
    <path d="M314.812 69.8965C313.738 70.873 312.583 71.8008 311.346 72.6797C310.141 73.526 308.872 74.2747 307.537 74.9258C306.202 75.5443 304.819 76.0326 303.387 76.3906C301.987 76.7812 300.555 76.9766 299.09 76.9766C295.867 76.9766 292.84 76.4069 290.008 75.2676C287.176 74.1283 284.686 72.5169 282.537 70.4336C280.421 68.3177 278.745 65.7624 277.508 62.7676C276.303 59.7402 275.701 56.3548 275.701 52.6113V23.7051H288.982V52.6113C288.982 54.3691 289.243 55.9479 289.764 57.3477C290.317 58.7148 291.049 59.8704 291.961 60.8145C292.872 61.7585 293.93 62.4746 295.135 62.9629C296.372 63.4512 297.69 63.6953 299.09 63.6953C300.457 63.6953 301.743 63.3861 302.947 62.7676C304.184 62.1165 305.258 61.2702 306.17 60.2285C307.081 59.1868 307.798 58.015 308.318 56.7129C308.839 55.3783 309.1 54.0111 309.1 52.6113V23.7051H322.43V76H319.207L314.812 69.8965Z" stroke="#FEFEFA" stroke-width="8" mask="url(#path-1-inside-1)"/>
    <path d="M348.357 9.49609C348.357 10.7331 348.113 11.8887 347.625 12.9629C347.169 14.0371 346.535 14.9811 345.721 15.7949C344.907 16.5762 343.947 17.2109 342.84 17.6992C341.766 18.1549 340.61 18.3828 339.373 18.3828C338.136 18.3828 336.964 18.1549 335.857 17.6992C334.783 17.2109 333.839 16.5762 333.025 15.7949C332.244 14.9811 331.609 14.0371 331.121 12.9629C330.665 11.8887 330.438 10.7331 330.438 9.49609C330.438 8.29167 330.665 7.15234 331.121 6.07812C331.609 4.97135 332.244 4.02734 333.025 3.24609C333.839 2.43229 334.783 1.79753 335.857 1.3418C336.964 0.853516 338.136 0.609375 339.373 0.609375C340.61 0.609375 341.766 0.853516 342.84 1.3418C343.947 1.79753 344.907 2.43229 345.721 3.24609C346.535 4.02734 347.169 4.97135 347.625 6.07812C348.113 7.15234 348.357 8.29167 348.357 9.49609ZM346.062 76H332.635V23.7051H346.062V76Z" stroke="#FEFEFA" stroke-width="8" mask="url(#path-1-inside-1)"/>
    <path d="M406.805 76H403.582L398.406 68.8223C397.137 69.9616 395.786 71.0358 394.354 72.0449C392.954 73.0215 391.473 73.8841 389.91 74.6328C388.348 75.349 386.736 75.9186 385.076 76.3418C383.449 76.765 381.788 76.9766 380.096 76.9766C376.417 76.9766 372.951 76.293 369.695 74.9258C366.473 73.526 363.641 71.6055 361.199 69.1641C358.79 66.6901 356.886 63.7767 355.486 60.4238C354.087 57.0384 353.387 53.36 353.387 49.3887C353.387 45.4499 354.087 41.7878 355.486 38.4023C356.886 35.0169 358.79 32.0872 361.199 29.6133C363.641 27.1393 366.473 25.2025 369.695 23.8027C372.951 22.403 376.417 21.7031 380.096 21.7031C381.268 21.7031 382.472 21.8008 383.709 21.9961C384.979 22.1914 386.199 22.5169 387.371 22.9727C388.576 23.3958 389.699 23.9655 390.74 24.6816C391.782 25.3978 392.661 26.2767 393.377 27.3184V2.9043H406.805V76ZM393.377 49.3887C393.377 47.5658 393.019 45.8079 392.303 44.1152C391.619 42.39 390.675 40.8763 389.471 39.5742C388.266 38.2396 386.85 37.1816 385.223 36.4004C383.628 35.5866 381.919 35.1797 380.096 35.1797C378.273 35.1797 376.548 35.5052 374.92 36.1562C373.325 36.8073 371.925 37.7513 370.721 38.9883C369.549 40.1927 368.621 41.6738 367.938 43.4316C367.254 45.1895 366.912 47.1751 366.912 49.3887C366.912 51.3092 367.254 53.1322 367.938 54.8574C368.621 56.5827 369.549 58.0964 370.721 59.3984C371.925 60.7005 373.325 61.7259 374.92 62.4746C376.548 63.2233 378.273 63.5977 380.096 63.5977C381.919 63.5977 383.628 63.207 385.223 62.4258C386.85 61.612 388.266 60.554 389.471 59.252C390.675 57.9173 391.619 56.4036 392.303 54.7109C393.019 52.9857 393.377 51.2116 393.377 49.3887Z" stroke="#FEFEFA" stroke-width="8" mask="url(#path-1-inside-1)"/>
    <path d="M437.811 63.207C438.331 63.3698 438.852 63.4837 439.373 63.5488C439.894 63.5814 440.415 63.5977 440.936 63.5977C442.238 63.5977 443.491 63.4186 444.695 63.0605C445.9 62.7025 447.023 62.1979 448.064 61.5469C449.139 60.8633 450.083 60.0495 450.896 59.1055C451.743 58.1289 452.426 57.0547 452.947 55.8828L462.713 65.6973C461.476 67.4551 460.044 69.0339 458.416 70.4336C456.821 71.8333 455.079 73.0215 453.191 73.998C451.336 74.9746 449.367 75.707 447.283 76.1953C445.232 76.7161 443.117 76.9766 440.936 76.9766C437.257 76.9766 433.79 76.293 430.535 74.9258C427.312 73.5586 424.48 71.6543 422.039 69.2129C419.63 66.7715 417.726 63.8743 416.326 60.5215C414.926 57.1361 414.227 53.4251 414.227 49.3887C414.227 45.2546 414.926 41.4785 416.326 38.0605C417.726 34.6426 419.63 31.7292 422.039 29.3203C424.48 26.9115 427.312 25.0397 430.535 23.7051C433.79 22.3704 437.257 21.7031 440.936 21.7031C443.117 21.7031 445.249 21.9635 447.332 22.4844C449.415 23.0052 451.385 23.7539 453.24 24.7305C455.128 25.707 456.886 26.9115 458.514 28.3438C460.141 29.7435 461.574 31.3223 462.811 33.0801L437.811 63.207ZM444.646 35.7168C444.028 35.4889 443.41 35.3424 442.791 35.2773C442.205 35.2122 441.587 35.1797 440.936 35.1797C439.113 35.1797 437.387 35.5215 435.76 36.2051C434.165 36.8561 432.765 37.8001 431.561 39.0371C430.389 40.2741 429.461 41.7715 428.777 43.5293C428.094 45.2546 427.752 47.2077 427.752 49.3887C427.752 49.877 427.768 50.4303 427.801 51.0488C427.866 51.6673 427.947 52.3021 428.045 52.9531C428.175 53.5716 428.322 54.1738 428.484 54.7598C428.647 55.3457 428.859 55.8665 429.119 56.3223L444.646 35.7168Z" stroke="#FEFEFA" stroke-width="8" mask="url(#path-1-inside-1)"/>
</svg>
