<svg width="11.906mm" height="11.906mm" version="1.1" viewBox="0 0 11.906 11.906" xmlns="http://www.w3.org/2000/svg">
 <g transform="translate(-88.946 -121.81)">
  <g transform="matrix(.14871 0 0 .14906 54.674 82.659)" aria-label="+">
   <path d="m262.52 294.53v-24.188q0-3.1875 2.3438-5.4375t5.7188-2.25q3.1875 0 5.4375 2.25t2.25 5.4375v24.188h24.188q3.2812 0 5.625 2.3438 2.4375 2.25 2.4375 5.5312t-2.4375 5.625q-2.3438 2.25-5.625 2.25h-24v24.188q0 3.375-2.4375 5.7188-2.3438 2.3438-5.625 2.3438t-5.625-2.3438q-2.25-2.3438-2.25-5.7188v-24.188h-24.188q-3.1875 0-5.5312-2.25-2.3438-2.3438-2.3438-5.625 0-3.1875 2.3438-5.5312t5.5312-2.3438z"/>
  </g>
 </g>
</svg>
